<svg xmlns="http://www.w3.org/2000/svg" viewBox="0 0 250 250">
  <defs>
    <style>
      .lotus-back { fill: url(#lotusBack); }
      .lotus-mid { fill: url(#lotusMid); }
      .lotus-front { fill: url(#lotusFront); }
    </style>
    <linearGradient id="lotusBack" x1="0" y1="0" x2="0" y2="1">
      <stop offset="0%" stop-color="#C79A55"/>
      <stop offset="100%" stop-color="#7A2E2E"/>
    </linearGradient>
    <linearGradient id="lotusMid" x1="0" y1="0" x2="0" y2="1">
      <stop offset="0%" stop-color="#EBD6A6"/>
      <stop offset="100%" stop-color="#B8863C"/>
    </linearGradient>
    <linearGradient id="lotusFront" x1="0" y1="0" x2="0" y2="1">
      <stop offset="0%" stop-color="#FCF6E9"/>
      <stop offset="100%" stop-color="#D9A94C"/>
    </linearGradient>
  </defs>
  <circle cx="125" cy="125" r="123" fill="#FAF6EE"/>
  <circle cx="125" cy="125" r="123" fill="none" stroke="#DCD3BF" stroke-width="2"/>
  <g transform="translate(0,20)" stroke="#FAF6EE" stroke-width="1.8" stroke-linejoin="round">
    <path class="lotus-back" d="M131.49,179.38 C158.54,178.80 205.24,171.58 238.12,136.30 C189.96,133.75 151.35,161.00 131.49,179.38 Z"/>
    <path class="lotus-back" d="M129.98,177.08 C154.72,166.12 195.03,141.47 211.77,96.24 C166.35,112.45 141.22,152.47 129.98,177.08 Z"/>
    <path class="lotus-back" d="M127.70,175.54 C146.31,155.89 174.00,117.61 172.02,69.42 C136.35,101.89 128.59,148.50 127.70,175.54 Z"/>
    <path class="lotus-back" d="M125.00,175.00 C134.60,149.70 145.40,103.70 125.00,60.00 C104.60,103.70 115.40,149.70 125.00,175.00 Z"/>
    <path class="lotus-back" d="M122.30,175.54 C121.41,148.50 113.65,101.89 77.98,69.42 C76.00,117.61 103.69,155.89 122.30,175.54 Z"/>
    <path class="lotus-back" d="M120.02,177.08 C108.78,152.47 83.65,112.45 38.23,96.24 C54.97,141.47 95.28,166.12 120.02,177.08 Z"/>
    <path class="lotus-back" d="M118.51,179.38 C98.65,161.00 60.04,133.75 11.88,136.30 C44.76,171.58 91.46,178.80 118.51,179.38 Z"/>
    <path class="lotus-mid" d="M129.95,177.05 C149.38,168.48 180.95,149.13 193.59,113.41 C157.87,126.05 138.52,157.62 129.95,177.05 Z"/>
    <path class="lotus-mid" d="M128.18,175.76 C144.01,161.61 168.05,133.45 169.04,95.57 C138.97,118.64 130.32,154.63 128.18,175.76 Z"/>
    <path class="lotus-mid" d="M126.10,175.09 C136.78,156.73 150.94,122.53 140.17,86.19 C118.71,117.42 121.61,154.33 126.10,175.09 Z"/>
    <path class="lotus-mid" d="M123.90,175.09 C128.39,154.33 131.29,117.42 109.83,86.19 C99.06,122.53 113.22,156.73 123.90,175.09 Z"/>
    <path class="lotus-mid" d="M121.82,175.76 C119.68,154.63 111.03,118.64 80.96,95.57 C81.95,133.45 105.99,161.61 121.82,175.76 Z"/>
    <path class="lotus-mid" d="M120.05,177.05 C111.48,157.62 92.13,126.05 56.41,113.41 C69.05,149.13 100.62,168.48 120.05,177.05 Z"/>
    <path class="lotus-front" d="M127.85,175.61 C138.07,165.23 153.42,144.91 153.06,118.97 C133.54,136.06 128.72,161.06 127.85,175.61 Z"/>
    <path class="lotus-front" d="M126.46,175.15 C134.30,162.88 145.09,139.82 139.35,114.51 C123.81,135.29 124.28,160.75 126.46,175.15 Z"/>
    <path class="lotus-front" d="M125.00,175.00 C130.12,161.36 135.88,136.56 125.00,113.00 C114.12,136.56 119.88,161.36 125.00,175.00 Z"/>
    <path class="lotus-front" d="M123.54,175.15 C125.72,160.75 126.19,135.29 110.65,114.51 C104.91,139.82 115.70,162.88 123.54,175.15 Z"/>
    <path class="lotus-front" d="M122.15,175.61 C121.28,161.06 116.46,136.06 96.94,118.97 C96.58,144.91 111.93,165.23 122.15,175.61 Z"/>
  </g>
  <text x="125" y="161" text-anchor="middle" dominant-baseline="central"
        font-family="'Noto Serif Devanagari', serif" font-size="26" fill="#5C3A16">ॐ</text>
</svg>
